<?xml version="1.0" encoding="UTF-8"?>
<!DOCTYPE svg PUBLIC "-//W3C//DTD SVG 1.1//EN" "http://www.w3.org/Graphics/SVG/1.1/DTD/svg11.dtd">
<!-- Creator: CorelDRAW 2017 -->
<svg xmlns="http://www.w3.org/2000/svg" xml:space="preserve" width="297mm" height="210mm" version="1.1" style="shape-rendering:geometricPrecision; text-rendering:geometricPrecision; image-rendering:optimizeQuality; fill-rule:evenodd; clip-rule:evenodd"
viewBox="0 0 29700 21000"
 xmlns:xlink="http://www.w3.org/1999/xlink">
 <defs>
  <style type="text/css">
   <![CDATA[
    .fil3 {fill:#2B3C5A}
    .fil4 {fill:#779CD3}
    .fil1 {fill:#2B3C5A;fill-rule:nonzero}
    .fil5 {fill:#2B3C5A;fill-rule:nonzero}
    .fil2 {fill:#779CD3;fill-rule:nonzero}
    .fil0 {fill:#C3C3C3;fill-rule:nonzero}
   ]]>
  </style>
 </defs>
 <g id="Warstwa_x0020_1">
  <metadata id="CorelCorpID_0Corel-Layer"/>
  <g id="_2480472867328">
   <path class="fil0" d="M9329 12903l250 0c235,0 401,-154 401,-371 0,-217 -166,-370 -401,-370l-250 0 0 741zm5019 0l84 0 0 -267 217 0c153,0 273,-98 273,-237 0,-139 -120,-237 -273,-237l-301 0 0 741zm84 -346l0 -315 202 0c121,0 203,58 203,158 0,99 -82,158 -203,158l-202 0zm731 267l0 -661 -84 0 0 741 489 0 0 -80 -405 0zm1178 80l92 0 -327 -741 -92 0 -327 741 92 0 74 -168 413 0 74 168zm-453 -248l173 -390 172 390 -344 0zm859 248l84 0 0 -661 249 0 0 -80 -583 0 0 80 249 0 0 661zm1047 -661l0 -80 -532 0 0 741 85 0 0 -338 402 0 0 -80 -402 0 0 -244 447 0zm524 674c206,0 379,-176 379,-384 0,-208 -173,-383 -379,-383 -205,0 -380,175 -380,383 0,208 175,384 380,384zm0 -78c-160,0 -295,-140 -295,-306 0,-165 135,-305 295,-305 160,0 293,140 293,305 0,166 -134,306 -293,306zm1142 -439c0,-139 -120,-237 -273,-237l-301 0 0 741 84 0 0 -267 196 0 188 267 96 0 -192 -274c118,-25 202,-113 202,-230zm-490 -158l202 0c121,0 203,58 203,158 0,99 -82,158 -203,158l-202 0 0 -315zm682 661l84 0 0 -560 275 517 275 -517 0 560 84 0 0 -741 -84 0 -275 517 -275 -517 -84 0 0 741zm-10238 -77l0 -588 166 0c186,0 316,122 316,293 0,173 -131,295 -316,295l-166 0zm796 77l84 0 0 -741 -84 0 0 741zm670 -311l213 0 0 177c-55,42 -135,69 -204,69 -160,0 -295,-140 -295,-306 0,-165 135,-305 295,-305 81,0 177,37 231,94l57 -58c-69,-70 -186,-113 -288,-113 -205,0 -380,175 -380,383 0,208 175,384 380,384 103,0 219,-44 288,-113l0 -290 -297 0 0 80zm536 311l84 0 0 -741 -84 0 0 741zm541 0l84 0 0 -661 249 0 0 -80 -583 0 0 80 249 0 0 661zm1069 0l92 0 -327 -741 -92 0 -327 741 92 0 74 -168 413 0 74 168zm-453 -248l173 -390 172 390 -344 0zm811 168l0 -661 -84 0 0 741 489 0 0 -80 -405 0z"/>
   <g>
    <path class="fil1" d="M13935 8769c9,0 17,0 23,1 6,1 20,2 42,3l0 408c-31,-4 -58,-6 -82,-8 -24,-1 -43,-2 -58,-2 -196,0 -328,60 -396,180 -38,68 -57,235 -57,375l0 839 -487 0 0 -1756 463 0 0 307c75,-116 141,-196 196,-239 91,-72 210,-108 356,-108z"/>
    <path class="fil2" d="M20132 9631c0,-141 -35,-266 -103,-375 -69,-108 -180,-163 -334,-163 -186,0 -313,83 -382,247 -36,87 -54,199 -54,333 0,213 61,363 181,449 72,51 157,76 255,76 142,0 251,-52 325,-155 75,-103 112,-240 112,-412zm-292 -958c227,0 419,79 577,237 157,158 236,390 236,696 0,323 -77,569 -231,738 -154,169 -353,254 -595,254 -155,0 -283,-36 -385,-108 -56,-40 -111,-99 -164,-176l0 952 -502 0 0 -2555 488 0 0 274c55,-80 113,-143 175,-189 113,-82 247,-123 403,-123z"/>
    <polygon class="fil3" points="6792,8096 8439,8096 8439,8519 7344,8519 7344,9119 8277,9119 8277,9500 7344,9500 7344,10161 8439,10161 8439,10571 6792,10571 "/>
    <polygon class="fil3" points="8678,8762 9358,10571 9901,10571 10617,8762 10102,8762 9652,10055 9232,8762 "/>
    <path class="fil4" d="M16959 8084l-937 2480 572 0 160 -476 1037 0 169 476 583 0 -981 -2480 -603 0zm-65 1587l365 -1085 384 1085 -749 0z"/>
    <path class="fil2" d="M22388 9631c0,-141 -35,-266 -103,-375 -69,-108 -180,-163 -334,-163 -186,0 -313,83 -382,247 -36,87 -54,199 -54,333 0,213 61,363 181,449 72,51 157,76 255,76 142,0 251,-52 325,-155 75,-103 112,-240 112,-412zm-292 -958c227,0 419,79 577,237 157,158 236,390 236,696 0,323 -77,569 -231,738 -154,169 -353,254 -595,254 -155,0 -283,-36 -385,-108 -56,-40 -111,-99 -164,-176l0 952 -502 0 0 -2555 488 0 0 274c55,-80 113,-143 175,-189 113,-82 247,-123 403,-123z"/>
    <path class="fil3" d="M15107 10020l433 -1286 521 0c-256,668 -539,1577 -854,2194 -65,128 -195,252 -329,304 -121,47 -436,30 -569,20l0 -422 185 25c289,15 313,-102 360,-297l-707 -1824 518 0 442 1286z"/>
    <path class="fil5" d="M12510 10033c-67,155 -178,326 -304,405 -139,87 -314,131 -523,131 -331,0 -577,-98 -736,-294 -126,-157 -189,-355 -189,-595 0,-286 83,-510 247,-671 165,-162 374,-243 626,-243 283,0 507,85 671,254 164,169 242,429 235,779l-1280 0c4,135 44,240 122,315 77,75 194,113 309,113 148,0 280,-66 336,-194l487 0zm-445 -514c-4,-132 -41,-233 -113,-302 -72,-69 -187,-103 -290,-103 -110,0 -222,37 -293,109 -72,72 -107,172 -105,296l801 0z"/>
   </g>
  </g>
 </g>
</svg>
